<svg width="160" height="20" xmlns="http://www.w3.org/2000/svg">

 <g>
  <title>Layer 1</title>
  <rect rx="3" id="svg_8" height="20" width="100" y="0" x="60.11628" stroke-width="0" stroke="#000" fill="#cc2d31"/>
  <path id="svg_7" d="m0,4c0,-2.17352 1.82648,-4 4,-4l92,0c2.17352,0 4,1.82648 4,4l0,12c0,2.17352 -1.82648,4 -4,4l-92,0c-2.17352,0 -4,-1.82648 -4,-4l0,-12z" opacity="undefined" stroke-width="0" stroke="#000" fill="#575757"/>
  <text xml:space="preserve" text-anchor="start" font-family="Noto Sans JP" font-size="12" id="svg_9" y="14.62371" x="22.57058" stroke-width="0" stroke="#000" fill="#ffffff">豫ICP备</text>
  <rect stroke="#000" id="svg_10" height="20" width="42.22581" y="0" x="69.91937" stroke-width="0" fill="#cc2d31"/>
  <text xml:space="preserve" text-anchor="start" font-family="Noto Sans JP" font-size="12" id="svg_11" y="14.62371" x="74.81564" stroke-width="0" stroke="#000" fill="#ffffff">2024041163号</text>
  <path id="svg_13" d="m11.31839,2.72727c2.0789,0 3.76542,1.68815 3.76542,3.76704c0,2.0789 -1.68652,3.76542 -3.76542,3.76542c-2.0789,0 -3.76542,1.68815 -3.76542,3.76705c0,2.0789 1.68652,3.76542 3.76542,3.76542c4.1578,0 7.53247,-3.37467 7.53247,-7.53247c0,-4.1578 -3.37467,-7.53247 -7.53247,-7.53247l0,0zm0,2.58984c-0.64999,0 -1.1772,0.52721 -1.1772,1.1772c0,0.64999 0.52721,1.1772 1.1772,1.1772c0.64999,0 1.1772,-0.52721 1.1772,-1.1772c0,-0.64999 -0.52721,-1.1772 -1.1772,-1.1772zm0,7.53247c0.64966,0 1.1772,0.52755 1.1772,1.1772c0,0.64965 -0.52755,1.1772 -1.1772,1.1772c-0.64966,0 -1.1772,-0.52755 -1.1772,-1.1772c0,-0.64965 0.52755,-1.1772 1.1772,-1.1772zm7.36352,-2.58505c0,4.15471 -3.36806,7.52277 -7.52277,7.52277c-4.15471,0 -7.52277,-3.36806 -7.52277,-7.52277c0,-4.15471 3.36806,-7.52277 7.52277,-7.52277c4.15471,0 7.52277,3.36806 7.52277,7.52277z" stroke-width="0" stroke="#000" fill="#ffffff"/>
 </g>
</svg>